<svg width="16" height="16" viewBox="0 0 16 16" fill="none" xmlns="http://www.w3.org/2000/svg">
  <!-- Root hex -->
  <polygon points="8,15 9.5,14 9.5,12.5 8,11.5 6.5,12.5 6.5,14" fill="#6C707E"/>

  <!-- Trunk -->
  <line x1="8" y1="11.5" x2="8" y2="9" stroke="#6C707E" stroke-width="1.2" stroke-linecap="round"/>

  <!-- Fork hex -->
  <polygon points="8,9.5 9.2,8.8 9.2,7.4 8,6.7 6.8,7.4 6.8,8.8" fill="#6C707E"/>

  <!-- Left branch -->
  <path d="M6.8 8 C5.8 7, 4 6.8, 4 5.5" stroke="#6C707E" stroke-width="1" stroke-linecap="round" fill="none"/>

  <!-- Center branch -->
  <line x1="8" y1="6.7" x2="8" y2="5.5" stroke="#6C707E" stroke-width="1" stroke-linecap="round"/>

  <!-- Right branch -->
  <path d="M9.2 8 C10.2 7, 12 6.8, 12 5.5" stroke="#6C707E" stroke-width="1" stroke-linecap="round" fill="none"/>

  <!-- Worktree hexagons (outlined) - 1px gap between each -->
  <!-- Left -->
  <polygon points="4,5.5 5.5,4.5 5.5,2.5 4,1.5 2.5,2.5 2.5,4.5" fill="none" stroke="#6C707E" stroke-width="1.1"/>

  <!-- Center -->
  <polygon points="8,5.5 9.5,4.5 9.5,2.5 8,1.5 6.5,2.5 6.5,4.5" fill="none" stroke="#6C707E" stroke-width="1.1"/>

  <!-- Right -->
  <polygon points="12,5.5 13.5,4.5 13.5,2.5 12,1.5 10.5,2.5 10.5,4.5" fill="none" stroke="#6C707E" stroke-width="1.1"/>
</svg>
